<mxfile host="Electron" agent="Mozilla/5.0 (Macintosh; Intel Mac OS X 10_15_7) AppleWebKit/537.36 (KHTML, like Gecko) draw.io/26.0.16 Chrome/132.0.6834.196 Electron/34.2.0 Safari/537.36" version="26.0.16">
  <diagram name="Page-1" id="8R3U3bcAV_06SV-E_Ydl">
    <mxGraphModel dx="1272" dy="819" grid="1" gridSize="10" guides="1" tooltips="1" connect="1" arrows="1" fold="1" page="1" pageScale="1" pageWidth="827" pageHeight="1169" math="0" shadow="0">
      <root>
        <mxCell id="0" />
        <mxCell id="1" parent="0" />
        <mxCell id="aDDH8eQO9fjkvlAXM7PO-6" value="" style="edgeStyle=orthogonalEdgeStyle;rounded=0;orthogonalLoop=1;jettySize=auto;html=1;" edge="1" parent="1" source="aDDH8eQO9fjkvlAXM7PO-1">
          <mxGeometry relative="1" as="geometry">
            <mxPoint x="350" y="230" as="targetPoint" />
          </mxGeometry>
        </mxCell>
        <mxCell id="aDDH8eQO9fjkvlAXM7PO-1" value="MULAI" style="strokeWidth=2;html=1;shape=mxgraph.flowchart.start_2;whiteSpace=wrap;" vertex="1" parent="1">
          <mxGeometry x="265" y="50" width="170" height="80" as="geometry" />
        </mxCell>
        <mxCell id="aDDH8eQO9fjkvlAXM7PO-8" value="" style="edgeStyle=orthogonalEdgeStyle;rounded=0;orthogonalLoop=1;jettySize=auto;html=1;" edge="1" parent="1" source="aDDH8eQO9fjkvlAXM7PO-4" target="aDDH8eQO9fjkvlAXM7PO-7">
          <mxGeometry relative="1" as="geometry" />
        </mxCell>
        <mxCell id="aDDH8eQO9fjkvlAXM7PO-4" value="Masukan Huruf" style="shape=parallelogram;html=1;strokeWidth=2;perimeter=parallelogramPerimeter;whiteSpace=wrap;rounded=1;arcSize=12;size=0.23;" vertex="1" parent="1">
          <mxGeometry x="270" y="240" width="160" height="80" as="geometry" />
        </mxCell>
        <mxCell id="aDDH8eQO9fjkvlAXM7PO-9" style="edgeStyle=orthogonalEdgeStyle;rounded=0;orthogonalLoop=1;jettySize=auto;html=1;entryX=0.5;entryY=0;entryDx=0;entryDy=0;" edge="1" parent="1" source="aDDH8eQO9fjkvlAXM7PO-7" target="aDDH8eQO9fjkvlAXM7PO-12">
          <mxGeometry relative="1" as="geometry">
            <mxPoint x="120" y="560" as="targetPoint" />
          </mxGeometry>
        </mxCell>
        <mxCell id="aDDH8eQO9fjkvlAXM7PO-16" value="&lt;span style=&quot;background-color: rgb(255, 217, 102);&quot;&gt;&lt;font style=&quot;font-size: 14px;&quot;&gt;YA&lt;/font&gt;&lt;/span&gt;" style="edgeLabel;html=1;align=center;verticalAlign=middle;resizable=0;points=[];" vertex="1" connectable="0" parent="aDDH8eQO9fjkvlAXM7PO-9">
          <mxGeometry x="0.6211" relative="1" as="geometry">
            <mxPoint as="offset" />
          </mxGeometry>
        </mxCell>
        <mxCell id="aDDH8eQO9fjkvlAXM7PO-11" value="" style="edgeStyle=orthogonalEdgeStyle;rounded=0;orthogonalLoop=1;jettySize=auto;html=1;" edge="1" parent="1" source="aDDH8eQO9fjkvlAXM7PO-7" target="aDDH8eQO9fjkvlAXM7PO-10">
          <mxGeometry relative="1" as="geometry" />
        </mxCell>
        <mxCell id="aDDH8eQO9fjkvlAXM7PO-15" value="&lt;span style=&quot;background-color: rgb(255, 217, 102);&quot;&gt;&lt;font style=&quot;font-size: 14px;&quot;&gt;TIDAK&lt;/font&gt;&lt;/span&gt;" style="edgeLabel;html=1;align=center;verticalAlign=middle;resizable=0;points=[];" vertex="1" connectable="0" parent="aDDH8eQO9fjkvlAXM7PO-11">
          <mxGeometry x="0.52" relative="1" as="geometry">
            <mxPoint y="16" as="offset" />
          </mxGeometry>
        </mxCell>
        <mxCell id="aDDH8eQO9fjkvlAXM7PO-7" value="Apakah&lt;br&gt;a/i/u/e/o?" style="rhombus;whiteSpace=wrap;html=1;strokeWidth=2;rounded=1;arcSize=12;" vertex="1" parent="1">
          <mxGeometry x="270" y="400" width="160" height="110" as="geometry" />
        </mxCell>
        <mxCell id="aDDH8eQO9fjkvlAXM7PO-20" style="edgeStyle=orthogonalEdgeStyle;rounded=0;orthogonalLoop=1;jettySize=auto;html=1;" edge="1" parent="1" source="aDDH8eQO9fjkvlAXM7PO-10">
          <mxGeometry relative="1" as="geometry">
            <mxPoint x="390" y="750" as="targetPoint" />
          </mxGeometry>
        </mxCell>
        <mxCell id="aDDH8eQO9fjkvlAXM7PO-10" value="Cetak &quot;Konsonan&quot;" style="shape=parallelogram;perimeter=parallelogramPerimeter;whiteSpace=wrap;html=1;fixedSize=1;strokeWidth=2;rounded=1;arcSize=12;" vertex="1" parent="1">
          <mxGeometry x="530" y="570" width="150" height="70" as="geometry" />
        </mxCell>
        <mxCell id="aDDH8eQO9fjkvlAXM7PO-19" style="edgeStyle=orthogonalEdgeStyle;rounded=0;orthogonalLoop=1;jettySize=auto;html=1;" edge="1" parent="1" source="aDDH8eQO9fjkvlAXM7PO-12">
          <mxGeometry relative="1" as="geometry">
            <mxPoint x="330" y="750" as="targetPoint" />
          </mxGeometry>
        </mxCell>
        <mxCell id="aDDH8eQO9fjkvlAXM7PO-12" value="Cetak &quot;Vokal&quot;" style="shape=parallelogram;html=1;strokeWidth=2;perimeter=parallelogramPerimeter;whiteSpace=wrap;rounded=1;arcSize=12;size=0.23;" vertex="1" parent="1">
          <mxGeometry x="40" y="570" width="150" height="70" as="geometry" />
        </mxCell>
        <mxCell id="aDDH8eQO9fjkvlAXM7PO-18" value="SELESAI" style="strokeWidth=2;html=1;shape=mxgraph.flowchart.start_1;whiteSpace=wrap;" vertex="1" parent="1">
          <mxGeometry x="290" y="760" width="170" height="80" as="geometry" />
        </mxCell>
      </root>
    </mxGraphModel>
  </diagram>
</mxfile>
